<svg xmlns="http://www.w3.org/2000/svg" viewBox="0 0 329.04 329.04"><title>10percentoff</title><g id="bcefc2d6-39c8-4601-8e74-45e0b26b21d4" data-name="Layer 2"><g id="a0e3a4ec-01d2-4ba5-9322-472d5b9f5c9c" data-name="Layer 8"><path d="M107.67,146.44V67.9a51.81,51.81,0,0,1-10.54,3.28V64.07c5.07-1.1,10.81-4.66,13-7.12h6.3v89.49Z" fill="#fff"/><path d="M165,78.71V125c0,15.6-6.16,22.57-18.47,22.57-11.36,0-17.93-6.84-17.93-22.3v-46c0-17.1,8.08-22.85,18.47-22.85C157.2,56.4,165,62,165,78.71Zm-27.78-.14v47.07c0,9.31,3,13.68,9.72,13.68,5.88,0,9.3-3.28,9.3-14.09V78.43c0-10.26-3.83-13.82-9.44-13.82S137.22,67.62,137.22,78.57Z" fill="#fff"/><path d="M198.11,71V88.83c0,7.94-3.15,15.33-12.86,15.33-9.31,0-12.73-6.71-12.73-15V71.32c0-10.26,5.07-14.92,12.87-14.92S198.11,61.06,198.11,71Zm-19.57,75.4L220,57.5h5.47L184,146.44Zm.55-75.4V88.83c0,6.16,1.78,9,6.16,9,4.79,0,6.16-3,6.16-9.16V70.91c0-5.07-1.78-8.49-6-8.49C180.87,62.42,179.09,65.43,179.09,71Zm52.82,43.38v17.79c0,7.94-3.15,15.32-12.73,15.32s-12.86-6.7-12.86-15.05V114.69c0-10.12,5.2-14.91,13-14.91C226.85,99.78,231.91,104.3,231.91,114.42Zm-18.88,0v17.79c0,5.75,1.78,9.17,6.15,9.17,4.66,0,6-3.15,6-9.31V114.28c0-5.2-1.65-8.48-6-8.48S213,108.81,213,114.42Z" fill="#fff"/><path d="M99.63,204.63h5.78c5.21,0,7.12,2.84,7.12,7.44v1.6c0,4.85-1.39,6.35-3.2,7,2,.62,3.93,2.32,3.93,6.92v2.53c0,6.09-2,9-7.8,9H99.63Zm5.73,14.72c3.09,0,4-1.34,4-5.47v-1.6c0-3.21-1.18-4.81-4.23-4.81h-2.27v11.88Zm-2.48,17h2.32c3.82,0,4.8-1.86,4.8-6.3v-2.38c0-3.87-1.44-5.52-4.75-5.52h-2.37Z" fill="#fff"/><path d="M132.93,232.21c0,3.25,0,5.73,0,6.91h-3.15c-.05-.46-.1-1.8-.1-2.78a4.41,4.41,0,0,1-4.7,3.2c-2.07,0-5.06-.78-5.06-6.66V213h3.3V232c0,3.3.88,4.54,2.89,4.54s3.46-1.13,3.46-6.5V213h3.31Z" fill="#fff"/><path d="M140.72,203.09H144v5.26h-3.31Zm0,9.86H144v26.17h-3.25Z" fill="#fff"/><path d="M151.82,239.12v-36h3.25v36Z" fill="#fff"/><path d="M175.36,203.09v29.43c0,2.89,0,5.11.06,6.6h-3.15c-.05-.46-.16-1.91-.16-2.58a4.43,4.43,0,0,1-4.54,3c-4.34,0-5.47-3.41-5.47-8.42V220.28c0-4.65,1.85-7.75,5.88-7.75a4.38,4.38,0,0,1,4.08,2V203.09Zm-10,28.08c0,3.51.93,5.32,3.1,5.32,2.89,0,3.56-2.79,3.56-6.5v-8.78c0-2.89-.31-5.63-3.46-5.63-2.22,0-3.2,1.86-3.2,4.85Z" fill="#fff"/><path d="M185.64,226.63V231c0,2.73.52,5.68,3.25,5.68s3.1-2.07,3.1-4.75v-.21h3.2V232c0,3.1-.72,7.59-6.3,7.59-5.21,0-6.5-3.46-6.5-8.78v-10c0-4.08,1.44-8.21,6.55-8.21,4.91,0,6.3,3.72,6.3,8.21v5.89Zm6.45-2.74v-3.4c0-2.43-.36-5.12-3.2-5.12-2.63,0-3.25,2.28-3.25,5.17v3.35Z" fill="#fff"/><path d="M210.73,216.66c-3.3,0-5.42,2.17-5.42,6.72v15.74h-3.25V221.88c0-4.23,0-6.71-.06-8.93h3.15c.06.72.11,2.22.11,4a5.6,5.6,0,0,1,5.47-4.38Z" fill="#fff"/><path d="M218.58,231.43v1.14c0,2.78,1.13,4.13,3,4.13,2.17,0,3-1.35,3-3.93,0-2.73-.83-3.92-3.77-5.88-3.46-2.33-5.06-4.13-5.06-7.75s1.7-6.61,5.94-6.61c4.54,0,5.88,3,5.88,6.72v1.24h-3.25v-1.4c0-2.32-.62-3.72-2.69-3.72-1.85,0-2.63,1.29-2.63,3.46s.67,3.15,3.36,4.91c3.66,2.42,5.52,4.28,5.52,8.57,0,4.7-2,7.23-6.45,7.23-4.91,0-6.2-3.36-6.2-6.92v-1.19Z" fill="#fff"/><path d="M116,267.49a3,3,0,0,0,2.1-.79,8.79,8.79,0,0,0,.79-1.76c.68-1.86,1.47-4.24,1.66-4.81.64-1.85,1.11-3.24,1.7-5.09a5.15,5.15,0,0,0,.3-1.34c0-.94-1-1.09-1.75-1.11l.09-.21H132v3.47l-.21.06c-.58-1-1.7-3.27-2.53-3.23l-4.24.17-2.32,6.89h1.13a5,5,0,0,0,4.77-3.27l.25.08-2.3,7.37-.23-.05a9.81,9.81,0,0,0,.06-1c0-.51.09-2.79-2.19-2.79h-1.62L121,264.79a8.55,8.55,0,0,0-.47,1.74c0,.6,1,.87,1.73,1l-.07.21h-6.32Z" fill="#fff"/><path d="M129.55,267.23a5.09,5.09,0,0,1,.45-1.59c.38-1,1.17-2.81,1.59-3.9a21.35,21.35,0,0,0,1.07-2.85c0-.19,0-.19-.13-.19a8.19,8.19,0,0,0-2.19,2l-.17-.15c1.17-1.66,2.83-3,3.53-3a.76.76,0,0,1,.7.81,9.65,9.65,0,0,1-.8,2.66l-2.32,5.7.06.06a16.33,16.33,0,0,0,2.68-2.27l.15.17c-.43.7-2.75,3.19-3.87,3.19C129.81,267.81,129.55,267.51,129.55,267.23Zm4.17-13.38a1,1,0,0,1,1.05-1.09,1,1,0,0,1,1,1.05,1,1,0,0,1-1,1A1,1,0,0,1,133.72,253.85Z" fill="#fff"/><path d="M137.47,261.66a16.36,16.36,0,0,0,.81-2.75c0-.14,0-.21-.11-.21s-1.13.77-2.17,2.17l-.19-.13c1.34-2.19,2.76-3.29,3.53-3.29.32,0,.55.17.55.68a10.38,10.38,0,0,1-.57,2.44l.06,0c1.47-2.38,2.79-3.08,3.37-3.08a1,1,0,1,1,0,2.08c-.77,0-.92-.57-1.11-1-.76.17-2.28,2.22-2.79,3.62-.81,2.21-1.36,3.79-2,5.53h-1.7C136.08,265.38,137,263,137.47,261.66Z" fill="#fff"/><path d="M141.87,266.13a.87.87,0,0,1,.92-.9c.55,0,.76.45.85,1s.21,1.17,1.13,1.17,1.27-.89,1.27-1.68a4.75,4.75,0,0,0-.49-1.93c-.15-.37-.53-1.09-.81-1.66a3.45,3.45,0,0,1-.48-1.71,2.87,2.87,0,0,1,3-2.91c1,0,1.74.59,1.74,1.21s-.23.87-.76.87-.66-.38-.79-.78-.4-.85-1-.85a1.11,1.11,0,0,0-1,1.14,5.06,5.06,0,0,0,.64,2c.15.32.53,1,.72,1.39a3.91,3.91,0,0,1,.58,2,3.62,3.62,0,0,1-3.47,3.4A1.89,1.89,0,0,1,141.87,266.13Z" fill="#fff"/><path d="M148.85,267.11a5.36,5.36,0,0,1,.34-1.41l2.64-7.23h-1.62l.47-.83h1.45l.81-2.26,1.87-.62-1.09,2.88h2.37l-.52.83h-2.1c-.81,2.17-1.66,4.47-1.92,5.19a15.26,15.26,0,0,0-.78,2.53c0,.19.06.24.17.24.49,0,2.21-1.9,2.72-2.62l.19.13c-.49.87-2.91,3.87-4.28,3.87A.69.69,0,0,1,148.85,267.11Z" fill="#fff"/><path d="M158.38,267.49a3,3,0,0,0,2.11-.79,8.79,8.79,0,0,0,.79-1.76c.68-1.86,1.46-4.24,1.66-4.81.63-1.85,1.1-3.24,1.7-5.09a5.15,5.15,0,0,0,.3-1.34c0-.94-1.05-1.09-1.75-1.11l.09-.21c1.44,0,3.57,0,5.76,0,2.37,0,4.37,1.06,4.37,3.62s-2.28,4.59-6.22,4.59a17.3,17.3,0,0,1-2.3-.17c-.53,1.58-.83,2.49-1.44,4.41a8.55,8.55,0,0,0-.47,1.74c0,.6,1,.87,1.72,1l-.06.21h-6.32Zm13-12c0-2.3-1.49-2.83-3-2.83-.25,0-.59,0-.85,0L165,260.11a5.23,5.23,0,0,0,.77,0C169.68,260.15,171.34,258.08,171.34,255.47Z" fill="#fff"/><path d="M174.17,261.66a16.36,16.36,0,0,0,.81-2.75c0-.14,0-.21-.11-.21s-1.12.77-2.17,2.17l-.19-.13c1.34-2.19,2.77-3.29,3.53-3.29.32,0,.56.17.56.68a10.47,10.47,0,0,1-.58,2.44l.07,0c1.46-2.38,2.78-3.08,3.36-3.08a1,1,0,1,1,0,2.08c-.77,0-.91-.57-1.11-1-.76.17-2.27,2.22-2.78,3.62-.81,2.21-1.37,3.79-2,5.53h-1.7C172.79,265.38,173.7,263,174.17,261.66Z" fill="#fff"/><path d="M179.3,264.66c0-3.68,2.93-7.17,5.21-7.17,1.19,0,2,1.34,2,3.32,0,2.72-2.4,7-5.1,7C180.32,267.81,179.3,266.72,179.3,264.66Zm5.91-5.62c0-.93-.12-1.23-.51-1.23-1.36,0-4.15,5.53-4.15,8.34,0,1,.22,1.34.68,1.34C182.32,267.49,185.21,262.64,185.21,259Z" fill="#fff"/><path d="M182.55,271.32a.83.83,0,0,1,.85-.77c.73,0,.77.58.9.92s.27.81.7.81c1,0,1.89-2.34,2.49-4,.85-2.34,1.62-4.79,2.62-8.13a8.3,8.3,0,0,0,.23-1.13c0-.19,0-.21-.15-.21a9,9,0,0,0-2.36,2.53l-.17-.15c1.19-2.13,3.15-3.68,3.85-3.68.39,0,.64.34.66.79a12,12,0,0,1-.62,2.63c-.44,1.41-1.34,4.69-2.38,7.18-.79,1.85-2.53,4.55-4.68,4.55C183.19,272.64,182.55,272,182.55,271.32Zm8.9-17.47a1,1,0,0,1,1-1.09,1,1,0,0,1,1,1.05,1,1,0,0,1-1,1A1,1,0,0,1,191.45,253.85Z" fill="#fff"/><path d="M192.6,265.87c0-3.42,3-8.38,5.74-8.38,1.13,0,1.39.66,1.39,1.15,0,1.06-.9,2.61-5,4.08a8,8,0,0,0-.51,2.49c0,1,.29,1.39,1.08,1.39,1.07,0,2-.9,2.85-2.26l.24.13c-.6,1.28-2.53,3.34-4.28,3.34C193.38,267.81,192.6,267.32,192.6,265.87Zm5.76-7c0-.64-.27-.94-.57-.94-.72,0-2.19,2.39-2.92,4.51C197.34,261.4,198.36,260.25,198.36,258.83Z" fill="#fff"/><path d="M199.45,265.53c0-3.23,2.76-8,5.62-8,1.17,0,1.57.7,1.57,1.21a.75.75,0,0,1-.72.83c-.39,0-.71-.17-.71-.76s0-1-.4-1c-1,0-3.62,4.23-3.62,7.66,0,.87.17,1.4.77,1.4,1.13,0,2.06-1.21,2.85-2.55l.23.13c-.59,1.38-2.23,3.36-4.06,3.36C200.21,267.81,199.45,267.09,199.45,265.53Z" fill="#fff"/><path d="M205.92,267.11a5,5,0,0,1,.34-1.41l2.64-7.23h-1.62l.47-.83h1.44l.81-2.26,1.87-.62-1.08,2.88h2.36l-.51.83h-2.11c-.8,2.17-1.66,4.47-1.91,5.19a15.62,15.62,0,0,0-.79,2.53c0,.19.07.24.17.24.49,0,2.21-1.9,2.73-2.62l.19.13c-.49.87-2.92,3.87-4.28,3.87A.69.69,0,0,1,205.92,267.11Z" fill="#fff"/><path d="M152.33,165.75a10.1,10.1,0,0,1,3.79,13.91,10,10,0,0,1-3.79,3.68,11.24,11.24,0,0,1-10.68,0,10.1,10.1,0,0,1-3.8-3.68,10.24,10.24,0,0,1,0-10.27,10,10,0,0,1,3.8-3.64,11.46,11.46,0,0,1,10.68,0Zm-8.64,2.95a6.77,6.77,0,0,0-2.44,9.23,6.85,6.85,0,0,0,2.45,2.45,6.51,6.51,0,0,0,3.34.9,6.35,6.35,0,0,0,3.3-.9,6.59,6.59,0,0,0,2.41-2.45,7,7,0,0,0,0-6.81,6.51,6.51,0,0,0-2.41-2.42,6.43,6.43,0,0,0-3.3-.89A6.64,6.64,0,0,0,143.69,168.7Z" fill="#fff"/><path d="M161.67,164.68h13.62l0,3.3h-9.81v5.33h8.94v3.29h-8.94v7.81h-3.78Z" fill="#fff"/><path d="M179,164.68h13.62l0,3.3h-9.81v5.33h8.94v3.29h-8.94v7.81H179Z" fill="#fff"/><rect x="101" y="173.11" width="26.02" height="2.89" fill="#ef2d00"/><rect x="202.02" y="173.11" width="26.02" height="2.89" fill="#ef2d00"/><path d="M329,329H0V0H329Zm-2.43-2.43V2.43H2.43V326.61" fill="#ef2d00"/></g></g></svg>