<svg xmlns="http://www.w3.org/2000/svg" viewBox="0 0 151.67 77.83"><title>logo</title><g id="bc6cd55c-18e5-4b35-b094-ef94befc82e3" data-name="Layer 2"><g id="b2bec534-9dc1-4361-9a69-593d3e17258a" data-name="Layer 8"><path d="M61.13,44.67h9.16c0,.35.09.67.14,1a2.29,2.29,0,0,0,2.08,2.15,11.83,11.83,0,0,0,4.81-.22,2.18,2.18,0,0,0,1.58-1.46,6.13,6.13,0,0,0,.35-1.69c.07-1.66.08-3.32.11-5a1,1,0,0,0,0-.2c-.06,0-.13,0-.16,0a6.5,6.5,0,0,1-4.53,2.19,26.53,26.53,0,0,1-9.14-.57,6.19,6.19,0,0,1-4.58-4.3,14.24,14.24,0,0,1-.69-3.53,20.08,20.08,0,0,1,.55-7.16,11.91,11.91,0,0,1,.75-1.9,6.56,6.56,0,0,1,3.12-3,12.43,12.43,0,0,1,3.81-1.1,41.14,41.14,0,0,1,11.83.1,11.93,11.93,0,0,1,2.93.82,7.7,7.7,0,0,1,4.55,5,17.12,17.12,0,0,1,.84,5.26q0,6.49-.1,13A16.64,16.64,0,0,1,87.63,49a8.48,8.48,0,0,1-7.12,6.07,38.22,38.22,0,0,1-9.85.28,24,24,0,0,1-3.5-.53,7.39,7.39,0,0,1-6-7c-.09-.93-.07-1.86-.09-2.8A4.09,4.09,0,0,1,61.13,44.67ZM74.42,34.59V34.5h.31a11.77,11.77,0,0,0,3-.31,1.85,1.85,0,0,0,1.56-1.64,16.29,16.29,0,0,0,.07-2.79A2.36,2.36,0,0,0,77,27.35a18.78,18.78,0,0,0-5.45,0,2.2,2.2,0,0,0-2,1.89,7.23,7.23,0,0,0,0,3.14,2.16,2.16,0,0,0,1.82,1.81C72.41,34.38,73.42,34.47,74.42,34.59Z" fill="#606060"/><path d="M132.39,39.78h-8.11V20H150a59.41,59.41,0,0,1,0,7c-1.16,0-2.33,0-3.51,0H132.42v6.27a.79.79,0,0,0,.23-.12,6.45,6.45,0,0,1,4-2,22.19,22.19,0,0,1,8.4.36,7.46,7.46,0,0,1,6.07,6.52,30.83,30.83,0,0,1,.21,10,12.22,12.22,0,0,1-.48,1.87,6.8,6.8,0,0,1-3.51,3.93,16.17,16.17,0,0,1-4.75,1.42,37.9,37.9,0,0,1-8.38.37,18.26,18.26,0,0,1-5.17-1,12.1,12.1,0,0,1-1.43-.62,7.76,7.76,0,0,1-4.26-6,17.46,17.46,0,0,1-.11-3.08h9.23c.11.42.21.84.32,1.26a2.14,2.14,0,0,0,1.84,1.71,14.85,14.85,0,0,0,5.44,0,2.39,2.39,0,0,0,2.06-2.11,8.54,8.54,0,0,0,.19-1.66,32.49,32.49,0,0,0-.16-3.42A2.51,2.51,0,0,0,140,38.17a18.09,18.09,0,0,0-4.59-.18l-.49,0A2.43,2.43,0,0,0,132.39,39.78Z" fill="#606060"/><path d="M14.55,46.53c-.46,1-.89,2-1.29,2.92a.85.85,0,0,1-.52.48,16.56,16.56,0,0,0-1.9.91A7.51,7.51,0,0,0,8.05,53.7c-.06.13-.14.25-.28.49,0-.29,0-.46,0-.63q0-13.59,0-27.19a1.41,1.41,0,0,1,.58-1.22L28.55,9.24c.16-.12.33-.24.54-.41l12.17,9.56c-.08.22-.15.43-.23.64-.49,1.16-1,2.33-1.47,3.49a2.63,2.63,0,0,1-.52.76c-1,1.07-2.09,2.13-3.13,3.2a10.14,10.14,0,0,0-.71.86l-.33-.07a1.5,1.5,0,0,0-1.73.76,3.86,3.86,0,0,0-.37,1,2.22,2.22,0,0,1-.57,1c-.41.45-.76,1-1.13,1.44L29,31c0-.57-.08-1.17-.08-1.77a11.82,11.82,0,0,0-.29-3,3,3,0,0,0-.79-1.53,1.34,1.34,0,0,1-.22-.37,4.49,4.49,0,0,0-3.29-2.41,6.19,6.19,0,0,0-5.44,1.48,5.34,5.34,0,0,0-1.5,2.18c-.23.62-.5,1.23-.79,1.83a2.06,2.06,0,0,1-.46.57,20.36,20.36,0,0,0-2.91,3.31A10.5,10.5,0,0,0,11.33,38a12.61,12.61,0,0,0,1.1,4.45c.61,1.32,1.32,2.58,2,3.87Z" fill="#606060" opacity="0.29"/><path d="M115.94,20V55.17H107c0-1.8,0-3.58,0-5.35V28.61a.38.38,0,0,0-.11-.09h-.06l-.2.14-9.08,8-.14.06L92,30.71c.16-.1.31-.17.44-.27q6.1-5.11,12.21-10.23a1.15,1.15,0,0,1,.78-.3h10.07Z" fill="#606060"/><path d="M39.81,7.64V7c0-.94,0-1.87,0-2.8a7.15,7.15,0,0,1,0-.93c.11-.8.43-1.1,1.22-1.11s1.75,0,2.62,0a.83.83,0,0,1,1,.76,7.28,7.28,0,0,1,.17,1.47c0,2.2,0,4.4,0,6.6a1.7,1.7,0,0,0,.71,1.48Q51.31,17.06,57,21.65a6,6,0,0,1,.66.57,1.34,1.34,0,0,1,0,2,16.93,16.93,0,0,1-2,1.58,2.21,2.21,0,0,1-2.52,0,7,7,0,0,1-.7-.52l-22.49-18c-.86-.68-.85-.68-1.72,0C23.39,11.16,18.57,15,13.75,18.83c-2.67,2.13-5.32,4.29-8,6.44l-.54.42a2.33,2.33,0,0,1-2.84.09A17.52,17.52,0,0,1,.55,24.3a1.34,1.34,0,0,1,0-2.16c.21-.2.44-.38.67-.56,3.46-2.74,6.93-5.47,10.38-8.23C16.72,9.26,21.81,5.14,26.92,1c.17-.14.35-.29.53-.42a2.45,2.45,0,0,1,3.21,0c.19.13.37.28.54.42L39,7.26l.63.47Z" fill="#606060"/><path d="M35.11,55.34c-.15-.49-.25-.91-.41-1.31a19.85,19.85,0,0,0-3-4.94c-.24-.31-.49-.62-.75-.92-.72-.84-.72-.84-.14-1.92.35.07.71.16,1.07.21a22.72,22.72,0,0,0,2.58.32,3.09,3.09,0,0,0,3.39-2.65,23.43,23.43,0,0,0,.35-2.9,1.46,1.46,0,0,1,.34-.95,1.5,1.5,0,0,0,.23-1.88c-.5-1-.94-2-1.42-3a1,1,0,0,1,0-.89c.14-.32.21-.67.34-1a4.48,4.48,0,0,1,.45-.87,3.63,3.63,0,0,0,.75-2.32.81.81,0,0,1,.29-.76,1.81,1.81,0,0,0,.37-.49c.69-1,1.38-2.08,2.05-3.12a1,1,0,0,1,.73-.51c1.27-.27,2.54-.6,3.82-.86a1.59,1.59,0,0,0,1.44-1.25l2.52,2a.94.94,0,0,1,.31.84V55.34Z" fill="#606060" opacity="0.29"/><path d="M33.44,30.94A8.17,8.17,0,0,0,34,29.27a1.18,1.18,0,0,1,.17-.52.45.45,0,0,1,.33-.23c.1,0,.24.14.3.25a4.81,4.81,0,0,1,.19.6,7.45,7.45,0,0,0,.79-.81c.17-.18.29-.37.59-.41a.56.56,0,0,0,.32-.44.69.69,0,0,1,.28-.52l2.7-2.75s.05-.08.09-.09c.61-.25.74-.83,1-1.35a15.2,15.2,0,0,1,1-2.08l-.76,2.39.11.06,1.43-1.69.09.06-1,1.46.06.07.75-.47,0,.05-.64.5.08.12.63-.08-.43.33c1.1,0,2.1-.2,3.13-.12L41,24.6c-.14.27-.23.5-.36.7-.67,1-1.35,2.05-2,3.07-.14.22-.25.43-.62.38s-.6.28-.47.66a2.7,2.7,0,0,1-.6,2.88,1.73,1.73,0,0,0-.28.54c-.21.6-.39,1.23-.62,1.82a1,1,0,0,0,0,.88c.6,1.23,1.17,2.48,1.78,3.77a3,3,0,0,1-.48.52.68.68,0,0,0-.31.63c-.06.93-.11,1.86-.22,2.79a5.49,5.49,0,0,1-.33,1.25,1.67,1.67,0,0,1-1.29,1.07,5.76,5.76,0,0,1-2.34-.09c-.76-.14-1.5-.32-2.25-.49l-.58-.13c-.07.16-.15.3-.21.45-.23.66-.45,1.33-.7,2a.72.72,0,0,0,.17.88c.62.69,1.23,1.41,1.8,2.14a17.31,17.31,0,0,1,2.4,4.06c.09.2.16.42.25.69H13l.24-1.32a3.41,3.41,0,0,0-1.52,1.33h-.84a1.47,1.47,0,0,1,.67-.9,9.26,9.26,0,0,1,1.85-1c1.46-.52,3-1,4.45-1.38a47.72,47.72,0,0,0,5.79-1.89,14.25,14.25,0,0,0,4.72-3,8.76,8.76,0,0,0,1.87-2.76c.08-.19.15-.39.23-.61a.72.72,0,0,0-.92.32,13.74,13.74,0,0,1-5.76,5.08,35.48,35.48,0,0,1-6.19,2.25l-4.17,1.23a10.28,10.28,0,0,0-1.16.45A4.63,4.63,0,0,0,9.6,55.07H8.77c.12-.25.2-.45.3-.65a6.69,6.69,0,0,1,4-3.25,2,2,0,0,0,1.39-1.36,20.23,20.23,0,0,1,1.31-2.74.72.72,0,0,0,0-.84,24.21,24.21,0,0,1-2.36-4.51,12.64,12.64,0,0,1-.82-3.31,9.39,9.39,0,0,1,1.54-6.16,17.82,17.82,0,0,1,3.11-3.55,1.81,1.81,0,0,0,.52-.74c.27-.76.59-1.5.93-2.23a4.64,4.64,0,0,1,3.52-2.58,4.52,4.52,0,0,1,2.22.09,3.32,3.32,0,0,1,2.21,1.86,1,1,0,0,0,.21.37,2.38,2.38,0,0,1,.74,1.66c.1.7.11,1.41.14,2.11a1.58,1.58,0,0,1-.1.47c0,.08-.07.17,0,.22.37.63.13,1.3.11,1.95,0,.2-.05.4-.09.68a3.75,3.75,0,0,1,2.72.13v3.07l1.88-2.83c-.33-.43-.13-.83.33-1.18a.9.9,0,0,0,.24-.4c.1-.22.21-.41.5-.39L33,31.5c1.64.41,1.64.41,1.69.94a5.4,5.4,0,0,1-.59-.34,1.43,1.43,0,0,0-1.25-.19c-.48.09-.58.33-.4.92.65-.11,1.27,0,1.55.62-.14.48-.27.91-.4,1.34a6,6,0,0,1-.25.75c-.28.58-.59,1.14-.88,1.7a1.43,1.43,0,0,1,.43,1.11c0,.23.07.46.06.68,0,.41.18.58.54.7a4.5,4.5,0,0,0,2.15.19,4.07,4.07,0,0,0,1.88-.77l-.29-.59-1.5-3a.69.69,0,0,1-.08-.64A18.54,18.54,0,0,1,37,31.84a3.39,3.39,0,0,0,.41-1,4.67,4.67,0,0,0,.06-1,.39.39,0,0,0-.22-.25.28.28,0,0,0-.24.14,3.35,3.35,0,0,0-.22.63,2.35,2.35,0,0,1-.42,1.15,1.55,1.55,0,0,0-.71-1.31A1.7,1.7,0,0,0,34.15,30a.57.57,0,0,0-.29.22c-.15.21-.06.4.2.45a1.56,1.56,0,0,0,.43,0c.66,0,.94.47,1.27.86a.44.44,0,0,1,0,.55,5.77,5.77,0,0,0-.48-.78A1.64,1.64,0,0,0,33.44,30.94ZM21.8,43.9l.19-.16a2.41,2.41,0,0,0,1-2.51,2.33,2.33,0,0,1,0-.37,10.36,10.36,0,0,0-1.58-4.6,1.64,1.64,0,0,0-.54-.57A6,6,0,0,0,18.57,35a2.23,2.23,0,0,0-2.32,3,26.73,26.73,0,0,0,2.22,4.72c.08.13.13.27.2.41a9.24,9.24,0,0,1-2-2.91,2.17,2.17,0,0,0-.06.25,6.12,6.12,0,0,0,2.65,4.65c.31.25.63.49,1.06.82a4.78,4.78,0,0,1-2.34-1.34c0,.09,0,.14,0,.17a9.7,9.7,0,0,0,1.77,2.83.69.69,0,0,0,.42.22,7.54,7.54,0,0,0,4.23-.71,2.34,2.34,0,0,0,1.1-2.51c-.36.07-.72.18-1.09.22s-.72,0-1.08,0c.74-.26,1.57-.29,2-1.1a4.56,4.56,0,0,0-1-1.65c-.53.06-.92.18-1.1.76A1.62,1.62,0,0,1,21.8,43.9Zm5.1-9.29a3,3,0,0,1-1.66-.24c-1.4-.51-2.79-1.06-4.18-1.6l-.46-.16c.6.46,1.23.8,1.83,1.22.76.53,1.5,1.09,2.23,1.67a2.36,2.36,0,0,1,.74,1c-.21-.14-.32-.19-.41-.26a30.62,30.62,0,0,0-6.88-3.81,1.11,1.11,0,0,0-.65-.12,3,3,0,0,0-1.46.8,1.12,1.12,0,0,0-.34,1.1h.61a25.56,25.56,0,0,1,2.91.24,5.64,5.64,0,0,1,4.6,4.13,15.88,15.88,0,0,1,.38,1.82c.06.28.08.56.12.84.91-.13.91-.13,1-.9.07-.44.16-.88.24-1.32h.06l.18,1.81a.81.81,0,0,0,.93-.64c.07-.26.16-.51.22-.78s.11-.61.16-.92l.14,0-.1,1.94c.28.09.34-.11.42-.28.19-.41.37-.83.58-1.23a4,4,0,0,1,1.8-2.05c-.49-1.36-1.57-2.53-2.4-2.56l.32,1.81-.09,0ZM32,40c0-.09,0-.11,0-.13.24-.24.63-.35.58-.81s0-.7-.07-1a.39.39,0,0,0-.3-.24c-.09,0-.19.15-.27.26a.22.22,0,0,0,0,.18.86.86,0,0,1-.69.9,1.3,1.3,0,0,0-.33.17.65.65,0,0,1-.8-.07c-.35-.26-.41-.43-.26-.92s.24-.68.37-1.05c-.52-.06-.7.27-.85.57-.39.8-.75,1.61-1.12,2.41.76.61.76.61.75,1-.27-.15-.52-.33-.8-.46a.84.84,0,0,0-.53-.09c-1,.31-2,.65-2.94,1,0,0,0,.06-.06.12a4.9,4.9,0,0,1,1.14,2.42A7.73,7.73,0,0,1,25.5,47c.21-.13.3-.17.38-.23a14.68,14.68,0,0,0,3.42-3.57.88.88,0,0,1,.73-.46,6.81,6.81,0,0,0,1.45-.35,2.75,2.75,0,0,0,.61-.38l-.27-.22c.8-.38.83-.42.77-.92l-.59.16c.42-.39,1-.64.84-1.43ZM19.49,28.35l-.1.11a4.19,4.19,0,0,1,.24.62,1,1,0,0,0,.84.8c.51.12,1,.31,1.5.43a8.1,8.1,0,0,0,4.12.05c.23-.06.45-.15.68-.23a20.09,20.09,0,0,1-3.87-.19l-1.06-2.57a3.41,3.41,0,0,1,2.37-1.57L26,25.49l.5-.1a6,6,0,0,0-2.31-1.66,2.79,2.79,0,0,0-1.59-.13A4.45,4.45,0,0,0,20,25.43a3.26,3.26,0,0,0-.25.81,8.24,8.24,0,0,1,4.92-.82c-.38.09-.77.12-1.15.19l-3.4.7c-.21.05-.41.1-.46.36-.1.46-.21.92-.32,1.39a8.25,8.25,0,0,0,.88.55c.64.29,1.29.56,1.94.83.18.07.37.12.22.41A7.54,7.54,0,0,1,19.49,28.35Zm-1.19.81c-.63.72-1.32,1.47-2,2.24a14.39,14.39,0,0,0-2,3,7.44,7.44,0,0,0-.57,4.85,17.89,17.89,0,0,0,1.7,4.33s.09.06.19.12v-.34c0-1.39-.09-2.78-.07-4.17a4.63,4.63,0,0,0-.5-2.69.61.61,0,0,1,0-.12c-.69-1.9-.32-3,1.41-4,.63-.39,1.31-.71,1.94-1.11,1.14-.72,1-.38.79-1.79a.34.34,0,0,0-.05-.13ZM27,26a16.24,16.24,0,0,0-3.52.56l.78,2.72,3.26-.52A10.59,10.59,0,0,0,27,26Zm.14,6.59a16.65,16.65,0,0,1-6.15-1c0,.1,0,.14.06.16A18.42,18.42,0,0,0,25.53,34a5.49,5.49,0,0,0,.79.15.41.41,0,0,0,.5-.35C26.9,33.45,27,33.1,27.16,32.61ZM15.88,45.15l-.34-.56c-.46-.88-1-1.73-1.38-2.64A9.81,9.81,0,0,1,14,34.5a13.53,13.53,0,0,1,1.84-3.3c.09-.13.17-.27.26-.41a9.89,9.89,0,0,0-3,9C13.46,41.69,15,44.8,15.88,45.15Zm15.9,7.68c-2.44,1.2-5,1.09-7.54,1.24a33.36,33.36,0,0,0,3.46.27,10.17,10.17,0,0,0,3.55-.45c.34-.12.66-.29,1.06-.46ZM30.45,38.91c.17-.55.31-1,.48-1.53a14.86,14.86,0,0,1,.57-1.44,12.77,12.77,0,0,1,.76-1.41c.26-.43.58-.82.88-1.23a.46.46,0,0,0-.67.08,7.72,7.72,0,0,0-.79.94,12.31,12.31,0,0,0-1.53,3.91A.57.57,0,0,0,30.45,38.91ZM27.83,33a3.27,3.27,0,0,1,1.43,1.83c.13.31.3.61.46.91l.13,0V33A2.1,2.1,0,0,0,27.83,33ZM21,30.42a9,9,0,0,0,3.05,1,6.64,6.64,0,0,0,3.13-.18c.39-.13.4-.16.23-.64C25.21,31.37,23.09,30.94,21,30.42ZM40.27,24.7,37.7,27.53l.59.74,2.07-3C40.46,25.1,40.57,24.94,40.27,24.7ZM22.9,26.83l-.83.6L23,29.55l.86-.27Zm-1.21,4.45a8.19,8.19,0,0,0,2.68,1,5,5,0,0,0,2.52,0c.52-.15.52-.16.4-.8C25.39,32.35,23.54,31.88,21.69,31.28Zm14.41-2c-.38.63-.38.63-.08.93l.39-.55c.1.36-.34.66.1,1l.6-1.69a1.28,1.28,0,0,0-.94-.62l-.79,1.17.09.07ZM17.88,28.06l.52.49.11-1.65ZM16.22,30.5l.08.06.3-.39-.08-.06Z" fill="#606060"/><path d="M54.63,60.25h4.73q1.23,6.65,2.44,13.29H62c.39-1.45.71-2.93,1.06-4.4s.71-2.94,1.06-4.41.71-3,1.07-4.49H70L73.18,73.4h.14c.83-4.38,1.67-8.75,2.5-13.15H80.5C79.28,66.05,78,71.81,76.81,77.59H70Q68.84,72.28,67.64,67h-.15c-.79,3.54-1.57,7.08-2.37,10.64H58.33Z" fill="#ef2d00"/><path d="M100.85,60.24l.5,0c3.15,0,6.3,0,9.45,0a10.51,10.51,0,0,1,1.85.23,3.53,3.53,0,0,1,3,3.12,30.12,30.12,0,0,1,.21,3.16,5.93,5.93,0,0,1-.08,1.11,3.25,3.25,0,0,1-2.35,3l-.18.06L113,71a3.3,3.3,0,0,0,.31.19l.52.2a2.42,2.42,0,0,1,1.71,2.17c.1,1.32.12,2.64.17,3.94a23.86,23.86,0,0,1-4.7.11c0-.15,0-.31-.06-.46,0-.6,0-1.21,0-1.81a5.59,5.59,0,0,0-.26-1.33,1.18,1.18,0,0,0-1.12-.85c-1.1,0-2.2,0-3.29,0h-.71c0,1.5,0,3,0,4.46h-4.66Zm4.7,8.83h3q.41,0,.81,0l.36-.06A1.44,1.44,0,0,0,111,67.75a6.62,6.62,0,0,0,0-2.47,1.11,1.11,0,0,0-1-1,4.21,4.21,0,0,0-.5,0H106a3.84,3.84,0,0,0-.44.06Z" fill="#ef2d00"/><path d="M98.17,68.88c-.11,1.47-.14,2.94-.33,4.4a4.57,4.57,0,0,1-3.66,4.13,10.76,10.76,0,0,1-1.77.31,28,28,0,0,1-5.34-.07,9.09,9.09,0,0,1-1-.2,4.77,4.77,0,0,1-3.83-4.56,35,35,0,0,1,.09-8.31,6.07,6.07,0,0,1,.25-1,4.65,4.65,0,0,1,4-3.32,23.8,23.8,0,0,1,7,0,4.66,4.66,0,0,1,4,3.33A8.69,8.69,0,0,1,98,66.21c0,.89,0,1.78,0,2.67Zm-11.48-.13h0c0,.21,0,.42,0,.62.08,1,.13,1.94.27,2.9a1.57,1.57,0,0,0,1.43,1.36,9.58,9.58,0,0,0,3.16,0,1.71,1.71,0,0,0,1.53-1.49,5.55,5.55,0,0,0,.13-.8c0-1.49.09-3,.09-4.47a6.73,6.73,0,0,0-.27-1.53,1.42,1.42,0,0,0-1.22-1.1,7,7,0,0,0-.92-.12c-.85,0-1.7,0-2.54.08a1.54,1.54,0,0,0-1.46,1.38,3.25,3.25,0,0,0-.08.43C86.8,66.93,86.75,67.84,86.69,68.75Z" fill="#ef2d00"/><path d="M150.86,65.75l-.37,0h-4c0-.24-.06-.46-.09-.67a1.33,1.33,0,0,0-1.32-1.31,8.2,8.2,0,0,0-2.84.1c-.81.19-1,.47-1.08,1.29a2.41,2.41,0,0,0,0,.38c0,.83.3,1.17,1.14,1.28s1.65.13,2.48.21c1.07.11,2.14.23,3.2.38a5.51,5.51,0,0,1,1.31.4A3.13,3.13,0,0,1,151.2,70a9.75,9.75,0,0,1,0,4.8A3.34,3.34,0,0,1,149.29,77a8,8,0,0,1-3.07.7,34,34,0,0,1-6-.1A3.91,3.91,0,0,1,136.51,74a15.37,15.37,0,0,1,0-1.92,30,30,0,0,1,4.61,0c0,.3.09.63.15,1,.13.69.35,1,1,1a23.22,23.22,0,0,0,3.23,0c.89-.07,1.25-.58,1.25-1.48v-.06c0-1.24-.35-1.58-1.57-1.67-1.53-.12-3.06-.21-4.59-.38a8,8,0,0,1-2-.5,3.09,3.09,0,0,1-2-2.32,9.67,9.67,0,0,1,0-4.38,3.25,3.25,0,0,1,1.89-2.33,6.76,6.76,0,0,1,1.95-.59,30.9,30.9,0,0,1,4-.27,16.44,16.44,0,0,1,3.2.37,3.65,3.65,0,0,1,3.15,3.75C150.87,64.65,150.86,65.17,150.86,65.75Z" fill="#ef2d00"/><path d="M.73,72H5.37c0,.33.07.63.13.94.13.71.36,1,1.08,1.06a22.36,22.36,0,0,0,3.17,0c.92-.07,1.28-.59,1.27-1.51,0-1.28-.33-1.61-1.6-1.71-1.51-.11-3-.2-4.53-.37a8.08,8.08,0,0,1-2-.49,3.11,3.11,0,0,1-2-2.37,9.79,9.79,0,0,1,0-4.07,3.48,3.48,0,0,1,2.49-2.84A16.36,16.36,0,0,1,6,60.14a17.19,17.19,0,0,1,5.26.09,8.59,8.59,0,0,1,1.33.32,3.53,3.53,0,0,1,2.48,3.19c.06.65,0,1.31,0,2H10.76c0-.28-.09-.56-.14-.84a1.23,1.23,0,0,0-1.07-1.07,7.73,7.73,0,0,0-3,.07c-.84.19-1,.45-1.1,1.32v.07c0,1.08.28,1.48,1.35,1.6.74.09,1.49.1,2.23.17,1.07.11,2.14.25,3.21.37l.12,0A3.69,3.69,0,0,1,15.66,71a11.47,11.47,0,0,1-.09,3.41,3.39,3.39,0,0,1-1.63,2.39,5.88,5.88,0,0,1-2.4.8,29.41,29.41,0,0,1-7.14,0A3.88,3.88,0,0,1,.74,73.8C.68,73.21.73,72.62.73,72Z" fill="#ef2d00"/><path d="M134.86,60.21l-6,8.5,6.59,8.87c-.25,0-.4,0-.55,0-1.49,0-3,0-4.48,0a.94.94,0,0,1-.87-.44c-1.39-1.94-2.81-3.86-4.19-5.8a1.15,1.15,0,0,0-1.22-.62,4.37,4.37,0,0,1-.63,0c0,1.18,0,2.31,0,3.44s0,2.23,0,3.37h-4.58c-.14-.43-.19-16.5,0-17.34h4.61v6.37a2.49,2.49,0,0,0,1.32.07c.15,0,.3-.25.42-.41,1.25-1.81,2.5-3.61,3.72-5.44a1.25,1.25,0,0,1,1.21-.64C131.63,60.24,133.16,60.21,134.86,60.21Z" fill="#ef2d00"/><path d="M40.75,60.23H53.18a19,19,0,0,1,.06,3.8c-.62,0-1.25,0-1.89,0s-1.32,0-2,0H45.43c0,1,0,2.06,0,3.14l2.44,0h4.88v3.35H45.45v3.22h8v3.81H40.75Z" fill="#ef2d00"/><path d="M34.11,77.6H29.43c0-.74,0-1.48,0-2.21V64.26H24.85v-4H38.68v4l-4.57,0Z" fill="#ef2d00"/><path d="M22.76,77.61H18.27c-.15-.46-.2-16.55-.05-17.36h4.5C22.86,60.69,22.91,76.79,22.76,77.61Z" fill="#ef2d00"/><path d="M35.18,39.71l-.94-.16a7.42,7.42,0,0,1-.36-2.76.49.49,0,0,0,0-.12,4.46,4.46,0,0,1,0-1,4,4,0,0,1,.54-.87,1,1,0,0,1-.21.87c-.06.06-.16.13-.15.18.1.67-.21,1.36.12,2,.23.46.49.91.72,1.37A4.06,4.06,0,0,1,35.18,39.71Z" fill="#606060"/><path d="M21,43.17c-.62,1.26-.55,1.49.63,2.23a2.37,2.37,0,0,1-1.34-.34.63.63,0,0,1-.25-.91A2.56,2.56,0,0,1,21,43.17Z" fill="#606060"/><path d="M26.69,44.69c-.1-.5,0-.78.4-1s.72-.41,1.08-.61a3,3,0,0,1,.32-.17.55.55,0,0,1-.07.18Z" fill="#606060"/><path d="M27.15,26.94l.16,1.28L24.8,26.61C25.41,26.19,25.84,26.38,27.15,26.94Z" fill="#606060"/><path d="M24,26.66a1.49,1.49,0,0,1,.44.09c.86.53,1.71,1.08,2.61,1.65-.36.05-.36.05-1.07-.36l-1-.6-1-.61Z" fill="#606060"/></g></g></svg>