<svg xmlns="http://www.w3.org/2000/svg" viewBox="0 0 219.47 54.39"><title>health-product_1</title><g id="a52e0b19-4c3b-49e4-b076-2dd97a1e00ee" data-name="Layer 2"><g id="a0df5536-6e6a-49fb-ba67-ea73a136ea60" data-name="Layer 7"><path d="M13,26.41l3.82-2.19,6.79,11.83,7-4-6.8-11.83L27.64,18,43.37,45.36l-3.82,2.2L32.19,34.75l-7,4L32.52,51.6,28.7,53.79Z" fill="#fff"/><path d="M51.31,8.32,63.06,4.87,64,8l-7.52,2.21,2.94,10,6.1-1.78.88,3-6.1,1.79,3.26,11.11,7.59-2.23.89,3L60.2,38.62Z" fill="#fff"/><path d="M91.36.3,95.59,0l9,31-4.16.3-2-7.83L92,23.94l-1,8-4.12.3Zm6.25,20.07-3.67-14L92.36,20.75Z" fill="#fff"/><path d="M124.83.37l4.38.49L126,29.1l8,.9-.35,3.13-12.4-1.38Z" fill="#fff"/><path d="M160.2,10.11,154.7,8.5l.92-3.14L170.7,9.78l-.93,3.14-5.34-1.57-8,27.16-4.23-1.24Z" fill="#fff"/><path d="M191.75,18.41l3.84,2.16-6.68,11.9,7.08,4,6.67-11.9,3.84,2.16L191.06,54.23l-3.85-2.16,7.23-12.88-7.07-4-7.23,12.89L176.3,46Z" fill="#fff"/><circle cx="4.76" cy="49.63" r="4.76" fill="#fff"/><circle cx="214.71" cy="49.63" r="4.76" fill="#fff"/></g></g></svg>