<svg xmlns="http://www.w3.org/2000/svg" viewBox="0 0 138.93 71.29"><title>logo</title><g id="ecf8daf0-6b88-4723-ba66-e8429d03f74a" data-name="Layer 2"><g id="ad60e80e-12b0-4d0d-84fb-2a26745d7981" data-name="Layer 8"><path d="M56,40.92h8.39c0,.32.08.61.13.91a2.08,2.08,0,0,0,1.9,2,10.71,10.71,0,0,0,4.4-.2,2,2,0,0,0,1.45-1.33,6,6,0,0,0,.33-1.55c.06-1.52.07-3,.09-4.56a.86.86,0,0,0,0-.18c-.06,0-.12,0-.15,0a5.92,5.92,0,0,1-4.15,2A24.32,24.32,0,0,1,60,37.5a5.67,5.67,0,0,1-4.19-4,13.21,13.21,0,0,1-.64-3.23,18.29,18.29,0,0,1,.51-6.55A10.1,10.1,0,0,1,56.35,22a6,6,0,0,1,2.85-2.75,11.29,11.29,0,0,1,3.49-1,37.5,37.5,0,0,1,10.84.1,10.91,10.91,0,0,1,2.68.75,7.09,7.09,0,0,1,4.18,4.61,15.82,15.82,0,0,1,.76,4.82q0,6-.09,11.91a15.11,15.11,0,0,1-.79,4.47,7.76,7.76,0,0,1-6.52,5.56,34.56,34.56,0,0,1-9,.26,21.5,21.5,0,0,1-3.2-.49A6.76,6.76,0,0,1,56,43.86C56,43,56,42.15,56,41.3A3.64,3.64,0,0,1,56,40.92Zm12.17-9.24V31.6h.29a10.76,10.76,0,0,0,2.71-.28,1.69,1.69,0,0,0,1.42-1.51,13.59,13.59,0,0,0,.07-2.55,2.16,2.16,0,0,0-2.11-2.2,17,17,0,0,0-5,0,2,2,0,0,0-1.86,1.73,6.82,6.82,0,0,0,0,2.88,2,2,0,0,0,1.68,1.65C66.33,31.49,67.25,31.57,68.17,31.68Z" fill="#cecece"/><path d="M121.27,36.44h-7.43V18.28h23.55a53.71,53.71,0,0,1,0,6.36c-1.06,0-2.13,0-3.21,0H121.3v5.75a.64.64,0,0,0,.21-.12,6,6,0,0,1,3.69-1.85,20.32,20.32,0,0,1,7.69.32,6.83,6.83,0,0,1,5.56,6,28,28,0,0,1,.19,9.13,11,11,0,0,1-.44,1.71,6.24,6.24,0,0,1-3.22,3.6,14.67,14.67,0,0,1-4.35,1.3,34.53,34.53,0,0,1-7.67.34,17,17,0,0,1-4.74-.89,12.49,12.49,0,0,1-1.3-.57A7.13,7.13,0,0,1,113,43.8a15.49,15.49,0,0,1-.1-2.82h8.46c.09.39.19.78.28,1.16a2,2,0,0,0,1.69,1.56,13.45,13.45,0,0,0,5,0,2.18,2.18,0,0,0,1.89-1.93,8.64,8.64,0,0,0,.18-1.52,29.81,29.81,0,0,0-.15-3.13,2.31,2.31,0,0,0-2-2.13,16.42,16.42,0,0,0-4.2-.17c-.15,0-.31,0-.46,0A2.24,2.24,0,0,0,121.27,36.44Z" fill="#cecece"/><path d="M13.32,42.62c-.41.94-.81,1.81-1.17,2.68a.78.78,0,0,1-.48.44,13.87,13.87,0,0,0-1.74.83,6.76,6.76,0,0,0-2.55,2.62c-.06.12-.13.23-.26.45,0-.27,0-.42,0-.58q0-12.45,0-24.91A1.29,1.29,0,0,1,7.59,23L26.15,8.47l.5-.38,11.14,8.76c-.07.2-.13.39-.21.58-.44,1.07-.88,2.14-1.34,3.2a2.32,2.32,0,0,1-.48.69c-.94,1-1.91,1.95-2.87,2.93-.23.25-.43.52-.65.8A2.38,2.38,0,0,0,32,25a1.38,1.38,0,0,0-1.6.7,3.52,3.52,0,0,0-.33,1,2.12,2.12,0,0,1-.52.92c-.38.42-.7.89-1,1.32l-1.87-.46c0-.53-.07-1.08-.07-1.62A10.68,10.68,0,0,0,26.25,24a2.66,2.66,0,0,0-.72-1.4,1.45,1.45,0,0,1-.2-.34,4.1,4.1,0,0,0-3-2.21,5.67,5.67,0,0,0-5,1.35,5,5,0,0,0-1.37,2c-.22.56-.46,1.12-.72,1.67a1.93,1.93,0,0,1-.43.52,18.28,18.28,0,0,0-2.66,3,9.58,9.58,0,0,0-1.77,6.13,11.5,11.5,0,0,0,1,4.07c.55,1.2,1.2,2.36,1.81,3.54A2,2,0,0,0,13.32,42.62Z" fill="#cecece" opacity="0.21"/><path d="M106.2,18.28V50.54H98c0-1.66,0-3.28,0-4.91V26.2l-.1-.07h-.06a1.18,1.18,0,0,0-.18.13l-8.32,7.37-.13,0-4.94-5.55a3.89,3.89,0,0,0,.4-.25l11.18-9.36a1,1,0,0,1,.71-.28h9.23Z" fill="#cecece"/><path d="M36.46,7V6.45c0-.86,0-1.71,0-2.57a6,6,0,0,1,0-.85c.1-.73.39-1,1.12-1s1.6,0,2.4,0a.78.78,0,0,1,.89.7,6.82,6.82,0,0,1,.16,1.35q0,3,0,6a1.53,1.53,0,0,0,.65,1.36Q47,15.62,52.24,19.83a6.18,6.18,0,0,1,.61.52,1.24,1.24,0,0,1-.05,1.87A16.88,16.88,0,0,1,51,23.67a2,2,0,0,1-2.31,0,4.86,4.86,0,0,1-.64-.48L27.41,6.7c-.78-.62-.77-.62-1.57,0L12.6,17.25c-2.45,1.95-4.88,3.93-7.32,5.9l-.49.39a2.13,2.13,0,0,1-2.6.07A15.62,15.62,0,0,1,.5,22.26a1.23,1.23,0,0,1,0-2c.19-.18.41-.34.62-.51,3.17-2.51,6.35-5,9.51-7.54q7-5.62,14-11.29c.16-.13.32-.26.49-.38a2.24,2.24,0,0,1,2.94,0c.17.12.33.25.49.38l7.17,5.73.58.43Z" fill="#cecece"/><path d="M32.16,50.69c-.14-.44-.23-.83-.37-1.2A18.55,18.55,0,0,0,29.07,45q-.33-.44-.69-.84c-.66-.78-.66-.78-.13-1.76.32.06.65.14,1,.19a21.29,21.29,0,0,0,2.37.29,2.83,2.83,0,0,0,3.1-2.43A21.07,21.07,0,0,0,35,37.77a1.33,1.33,0,0,1,.31-.87,1.37,1.37,0,0,0,.21-1.73c-.46-.89-.86-1.82-1.3-2.72a.86.86,0,0,1,0-.81c.13-.29.19-.62.32-.91a3.36,3.36,0,0,1,.41-.8,3.36,3.36,0,0,0,.69-2.13.7.7,0,0,1,.26-.69,1.57,1.57,0,0,0,.34-.46c.63-.95,1.26-1.9,1.88-2.86a1,1,0,0,1,.66-.46c1.17-.25,2.33-.55,3.5-.79a1.44,1.44,0,0,0,1.32-1.14l2.32,1.83a.91.91,0,0,1,.28.77c0,.89,0,1.79,0,2.68q0,11.63,0,23.25v.76Z" fill="#cecece" opacity="0.21"/><path d="M30.63,28.34a7.43,7.43,0,0,0,.51-1.53,1,1,0,0,1,.15-.48.44.44,0,0,1,.3-.21.46.46,0,0,1,.28.24,2.89,2.89,0,0,1,.17.54,5.53,5.53,0,0,0,.72-.74c.16-.16.28-.34.54-.38s.31-.26.3-.39a.62.62,0,0,1,.25-.48l2.48-2.53s.05-.06.08-.08c.56-.22.68-.75.88-1.23a13.9,13.9,0,0,1,.91-1.91l-.7,2.19.1,0,1.31-1.54.09.05-.87,1.34,0,.06.69-.43,0,.05-.59.46.08.11.58-.08-.4.31c1,0,1.93-.18,2.87-.11l-3.9.91c-.13.25-.22.46-.34.64-.61.95-1.22,1.88-1.84,2.82-.13.2-.23.39-.57.35s-.55.26-.43.6a2.48,2.48,0,0,1-.55,2.64,1.44,1.44,0,0,0-.26.49c-.19.56-.35,1.13-.57,1.67a1,1,0,0,0,0,.81c.55,1.13,1.07,2.26,1.63,3.45a2.51,2.51,0,0,1-.44.48.62.62,0,0,0-.28.57c-.06.86-.1,1.71-.2,2.56a5.15,5.15,0,0,1-.31,1.15,1.53,1.53,0,0,1-1.18,1,5.15,5.15,0,0,1-2.14-.08c-.69-.12-1.38-.3-2.06-.45l-.53-.12c-.07.15-.14.28-.19.41-.22.61-.41,1.23-.65,1.83a.66.66,0,0,0,.16.8c.57.64,1.12,1.29,1.64,2A16.18,16.18,0,0,1,30.7,49.8c.08.19.14.39.23.63H11.87l.21-1.2a3.17,3.17,0,0,0-1.39,1.21H9.92a1.39,1.39,0,0,1,.62-.82,8.71,8.71,0,0,1,1.69-.93c1.34-.47,2.7-.87,4.07-1.26a44.33,44.33,0,0,0,5.3-1.73,13,13,0,0,0,4.34-2.79,8.3,8.3,0,0,0,1.71-2.54c.07-.17.13-.35.21-.55a.66.66,0,0,0-.85.3,12.59,12.59,0,0,1-5.27,4.64,31.77,31.77,0,0,1-5.67,2.06c-1.28.37-2.55.75-3.82,1.14a8,8,0,0,0-1.06.41,4.21,4.21,0,0,0-2.4,2.08H8c.11-.23.19-.42.28-.6a6.15,6.15,0,0,1,3.67-3,1.77,1.77,0,0,0,1.27-1.24,18.79,18.79,0,0,1,1.21-2.52.65.65,0,0,0,0-.76,22,22,0,0,1-2.16-4.14,11.7,11.7,0,0,1-.75-3A8.67,8.67,0,0,1,13,29.54a16.34,16.34,0,0,1,2.85-3.25,1.57,1.57,0,0,0,.47-.68c.25-.69.55-1.37.86-2a4.26,4.26,0,0,1,3.23-2.37,4.23,4.23,0,0,1,2,.09,3,3,0,0,1,2,1.7c.06.12.1.27.2.34a2.17,2.17,0,0,1,.67,1.52c.09.64.1,1.29.13,1.93a1.72,1.72,0,0,1-.09.44c0,.06-.06.15,0,.2.33.58.11,1.18.09,1.78a4.5,4.5,0,0,1-.08.63,3.42,3.42,0,0,1,2.5.12v2.8l1.71-2.59c-.3-.39-.12-.75.31-1.07a1,1,0,0,0,.22-.37c.09-.2.19-.38.45-.36l-.25.49c1.51.38,1.51.38,1.56.87a4.69,4.69,0,0,1-.55-.32,1.32,1.32,0,0,0-1.14-.17c-.44.08-.53.31-.36.84.59-.1,1.15,0,1.41.57l-.37,1.23a5.54,5.54,0,0,1-.22.69c-.26.52-.54,1-.81,1.56a1.31,1.31,0,0,1,.4,1c0,.21.06.42.05.62,0,.38.17.53.5.64a4,4,0,0,0,2,.17,3.54,3.54,0,0,0,1.72-.69c-.1-.21-.17-.38-.26-.55-.46-.92-.91-1.84-1.37-2.75a.62.62,0,0,1-.08-.59,17.1,17.1,0,0,1,1.23-2.81,2.9,2.9,0,0,0,.37-.89,3.38,3.38,0,0,0,.06-.9c0-.08-.11-.19-.2-.23s-.19.06-.22.13a3.63,3.63,0,0,0-.21.58,2.07,2.07,0,0,1-.38,1.05,1.39,1.39,0,0,0-.64-1.2,1.61,1.61,0,0,0-1.41-.2.53.53,0,0,0-.26.21c-.14.19-.05.37.18.41a1.35,1.35,0,0,0,.4,0c.6-.05.85.43,1.16.79a.39.39,0,0,1,0,.5,5.51,5.51,0,0,0-.44-.72A1.51,1.51,0,0,0,30.63,28.34ZM20,40.21l.17-.14a2.21,2.21,0,0,0,.9-2.3c0-.11,0-.23,0-.34a9.49,9.49,0,0,0-1.44-4.22,1.56,1.56,0,0,0-.5-.52A5.49,5.49,0,0,0,17,32a2,2,0,0,0-2.12,2.75,23.73,23.73,0,0,0,2,4.33c.07.11.12.25.18.37a8.6,8.6,0,0,1-1.87-2.67c0,.16-.05.2-.05.24A5.6,5.6,0,0,0,17.6,41.3c.29.24.59.45,1,.76a4.32,4.32,0,0,1-2.14-1.24c0,.09,0,.13,0,.16A8.8,8.8,0,0,0,18,43.58a.62.62,0,0,0,.38.2,7,7,0,0,0,3.88-.65,2.13,2.13,0,0,0,1-2.3c-.33.06-.66.16-1,.19a8.32,8.32,0,0,1-1,0c.69-.24,1.44-.27,1.86-1a4.4,4.4,0,0,0-.95-1.51c-.48.05-.84.17-1,.69A1.45,1.45,0,0,1,20,40.21Zm4.67-8.51a2.78,2.78,0,0,1-1.52-.21c-1.28-.48-2.55-1-3.83-1.47l-.42-.15c.55.42,1.13.74,1.67,1.12.7.48,1.38,1,2.05,1.53a2.14,2.14,0,0,1,.68.95,3.93,3.93,0,0,1-.38-.24,28.11,28.11,0,0,0-6.3-3.49,1,1,0,0,0-.6-.1,2.76,2.76,0,0,0-1.33.72,1,1,0,0,0-.31,1,5.23,5.23,0,0,1,.56,0,21.36,21.36,0,0,1,2.66.22,5.15,5.15,0,0,1,4.21,3.77A13.77,13.77,0,0,1,22.13,37c.05.26.07.52.11.77.83-.12.83-.12.94-.82.07-.4.15-.81.22-1.21h.06l.16,1.65a.74.74,0,0,0,.86-.58c.06-.24.15-.47.2-.71s.1-.56.15-.84H25l-.09,1.78c.26.08.32-.1.39-.25.17-.38.34-.77.53-1.14a3.68,3.68,0,0,1,1.65-1.87C27,32.6,26,31.52,25.23,31.49l.29,1.66-.08,0Zm4.68,4.93c0-.08,0-.1,0-.11.22-.22.58-.33.53-.75s0-.64-.07-1a.34.34,0,0,0-.27-.22c-.08,0-.17.14-.25.23a.31.31,0,0,0,0,.17.76.76,0,0,1-.62.82,1.43,1.43,0,0,0-.3.16.6.6,0,0,1-.74-.07c-.32-.23-.37-.39-.24-.84s.22-.62.34-1c-.47-.05-.64.25-.77.53-.36.73-.69,1.47-1,2.21.7.55.7.55.69.94-.24-.14-.47-.31-.73-.43a.68.68,0,0,0-.48-.07c-.91.28-1.8.58-2.7.89,0,0,0,.06-.05.11a4.4,4.4,0,0,1,1,2.22,7.13,7.13,0,0,1-.29,2.59l.34-.22a13.36,13.36,0,0,0,3.14-3.27.8.8,0,0,1,.67-.42,6.05,6.05,0,0,0,1.32-.32,2.46,2.46,0,0,0,.56-.35l-.24-.2c.73-.35.76-.39.7-.84l-.54.14c.38-.35.87-.59.77-1.31ZM17.86,26l-.1.1c.08.19.17.37.23.56a.94.94,0,0,0,.77.74c.46.11.9.29,1.36.4a7.56,7.56,0,0,0,3.78,0c.21,0,.41-.14.62-.21A18.23,18.23,0,0,1,21,27.43l-1-2.35a3.11,3.11,0,0,1,2.17-1.45l1.62-.28.45-.09a5.45,5.45,0,0,0-2.11-1.53,2.59,2.59,0,0,0-1.46-.11,4.1,4.1,0,0,0-2.36,1.68,2.86,2.86,0,0,0-.23.73,7.49,7.49,0,0,1,4.51-.74c-.35.07-.71.1-1.05.17l-3.12.64c-.19,0-.37.09-.42.33-.09.42-.2.84-.3,1.28a9.52,9.52,0,0,0,.82.5c.58.27,1.18.51,1.77.76.17.07.34.11.2.37A6.88,6.88,0,0,1,17.86,26Zm-1.1.74c-.58.66-1.2,1.34-1.8,2.06a12.37,12.37,0,0,0-1.8,2.76A6.73,6.73,0,0,0,12.64,36a15.68,15.68,0,0,0,1.55,4s.08.06.17.12c0-.14,0-.22,0-.31,0-1.28-.08-2.55-.06-3.82a4.3,4.3,0,0,0-.46-2.47.36.36,0,0,1,0-.11c-.64-1.74-.3-2.74,1.28-3.71.59-.35,1.2-.65,1.78-1,1-.66,1-.35.73-1.65a.48.48,0,0,0-.05-.12Zm8-2.87a14.7,14.7,0,0,0-3.22.51l.71,2.49,3-.48A9.5,9.5,0,0,0,24.75,23.84Zm.13,6a15.33,15.33,0,0,1-5.63-.95c0,.09,0,.13.05.15a17.14,17.14,0,0,0,4.09,2.08,3.53,3.53,0,0,0,.72.14.37.37,0,0,0,.46-.32C24.64,30.64,24.75,30.32,24.88,29.87ZM14.55,41.36c-.13-.21-.23-.36-.31-.52-.43-.8-.92-1.58-1.27-2.41a9,9,0,0,1-.17-6.82,12.47,12.47,0,0,1,1.68-3c.09-.12.16-.25.24-.38A9.1,9.1,0,0,0,12,36.45C12.33,38.19,13.76,41,14.55,41.36Zm14.56,7c-2.24,1.09-4.58,1-6.9,1.13a30.56,30.56,0,0,0,3.16.25,9.26,9.26,0,0,0,3.26-.42,10.46,10.46,0,0,0,1-.42ZM27.9,35.64c.15-.5.27-1,.43-1.4a13.38,13.38,0,0,1,.52-1.32,12.34,12.34,0,0,1,.7-1.29c.24-.39.53-.75.8-1.12a.41.41,0,0,0-.61.07,7.29,7.29,0,0,0-.72.86A11.54,11.54,0,0,0,27.61,35,.53.53,0,0,0,27.9,35.64Zm-2.41-5.43a3,3,0,0,1,1.31,1.68c.13.28.28.55.42.83l.12,0V30.22A1.93,1.93,0,0,0,25.49,30.21ZM19.2,27.87a8.24,8.24,0,0,0,2.79.91,6.19,6.19,0,0,0,2.87-.16c.36-.12.37-.15.21-.59C23.09,28.74,21.15,28.34,19.2,27.87Zm17.69-5.24-2.36,2.59.55.68L37,23.14C37.07,23,37.16,22.84,36.89,22.63ZM21,24.58l-.77.54.85,1.95.79-.25Zm-1.11,4.07a7.32,7.32,0,0,0,2.46,1,4.6,4.6,0,0,0,2.3,0c.48-.14.48-.14.37-.73C23.26,29.64,21.56,29.2,19.87,28.65Zm13.2-1.82c-.35.58-.35.58-.08.85l.36-.5c.09.33-.31.6.09.92L34,26.54a1.23,1.23,0,0,0-.87-.57l-.72,1.08.08.06ZM16.38,25.7l.47.45L17,24.64Zm-1.52,2.24.07,0,.27-.36-.06-.05Z" fill="#cecece"/><path d="M50.05,55.19h4.33q1.11,6.09,2.23,12.17h.14c.36-1.33.65-2.68,1-4s.65-2.7,1-4.05.65-2.72,1-4.11h4.45l2.91,12h.13q1.16-6,2.3-12.05h4.28c-1.12,5.32-2.25,10.6-3.38,15.9H64.14c-.73-3.25-1.45-6.5-2.18-9.75h-.14l-2.17,9.75H53.43C52.31,65.79,51.18,60.51,50.05,55.19Z" fill="#cecece"/><path d="M92.38,55.18l.46,0c2.89,0,5.77,0,8.66,0a8.79,8.79,0,0,1,1.69.22,3.24,3.24,0,0,1,2.71,2.85,25.34,25.34,0,0,1,.19,2.89,6,6,0,0,1-.07,1,3,3,0,0,1-2.15,2.72l-.17.06-.21.08a1.9,1.9,0,0,0,.28.17c.15.07.32.12.48.18a2.24,2.24,0,0,1,1.56,2c.1,1.21.11,2.42.15,3.62a22.5,22.5,0,0,1-4.3.09,2.84,2.84,0,0,1,0-.42c0-.55,0-1.1,0-1.65a5.06,5.06,0,0,0-.23-1.22,1.07,1.07,0,0,0-1-.78c-1,0-2,0-3,0h-.64c0,1.37,0,2.71,0,4.08H92.38Zm4.3,8.09h2.8c.25,0,.49,0,.74,0a2.21,2.21,0,0,0,.34-.06,1.31,1.31,0,0,0,1.13-1.12,5.93,5.93,0,0,0,0-2.26,1,1,0,0,0-.91-.89,3.44,3.44,0,0,0-.46,0l-3.24,0a3.39,3.39,0,0,0-.41.06Z" fill="#cecece"/><path d="M89.92,63.1c-.09,1.34-.13,2.69-.3,4a4.18,4.18,0,0,1-3.35,3.78,10,10,0,0,1-1.62.28,25,25,0,0,1-4.89-.06,7.58,7.58,0,0,1-1-.18,4.37,4.37,0,0,1-3.51-4.18,31.77,31.77,0,0,1,.08-7.61,6.14,6.14,0,0,1,.23-.94,4.27,4.27,0,0,1,3.69-3,21.86,21.86,0,0,1,6.41,0,4.26,4.26,0,0,1,3.68,3.05,7.93,7.93,0,0,1,.42,2.41c0,.81,0,1.63,0,2.44ZM79.41,63h0c0,.19,0,.38,0,.57.08.88.12,1.78.26,2.65A1.42,1.42,0,0,0,81,67.45a9.1,9.1,0,0,0,2.9,0,1.56,1.56,0,0,0,1.4-1.37,6.17,6.17,0,0,0,.12-.73c0-1.37.08-2.73.08-4.1a6.06,6.06,0,0,0-.25-1.39,1.29,1.29,0,0,0-1.11-1,4.83,4.83,0,0,0-.85-.12c-.77,0-1.55,0-2.32.08a1.41,1.41,0,0,0-1.34,1.26,1.76,1.76,0,0,0-.07.4C79.51,61.31,79.46,62.14,79.41,63Z" fill="#cecece"/><path d="M138.19,60.23l-.33,0H134.2c0-.22-.06-.41-.08-.61a1.23,1.23,0,0,0-1.21-1.2,7.38,7.38,0,0,0-2.61.1c-.74.16-.94.42-1,1.18v.34c0,.76.28,1.07,1.05,1.17s1.51.12,2.27.2c1,.1,2,.2,2.94.35a5.09,5.09,0,0,1,1.19.36,2.92,2.92,0,0,1,1.75,2,9,9,0,0,1,0,4.4,3,3,0,0,1-1.78,2,7.24,7.24,0,0,1-2.81.64,29.4,29.4,0,0,1-5.47-.09A3.58,3.58,0,0,1,125,67.75,14.75,14.75,0,0,1,125,66a27.67,27.67,0,0,1,4.23,0c0,.28.08.58.14.87.12.64.32.9.95,1a20.89,20.89,0,0,0,3,0c.81-.06,1.14-.53,1.14-1.35v0c0-1.14-.31-1.45-1.44-1.54-1.4-.1-2.8-.19-4.2-.34A7.19,7.19,0,0,1,127,64a2.82,2.82,0,0,1-1.79-2.13,8.63,8.63,0,0,1,0-4,2.94,2.94,0,0,1,1.72-2.13,6.06,6.06,0,0,1,1.79-.54,29.38,29.38,0,0,1,3.63-.25,15.41,15.41,0,0,1,2.94.34,3.34,3.34,0,0,1,2.88,3.44C138.21,59.22,138.19,59.69,138.19,60.23Z" fill="#cecece"/><path d="M.67,65.93H4.92c0,.31.06.59.11.86.12.66.34.94,1,1a21.59,21.59,0,0,0,2.9,0c.84-.06,1.18-.54,1.17-1.39,0-1.17-.31-1.47-1.47-1.56-1.39-.1-2.77-.19-4.15-.34A7.62,7.62,0,0,1,2.67,64,2.84,2.84,0,0,1,.84,61.87a9.19,9.19,0,0,1,0-3.73,3.19,3.19,0,0,1,2.29-2.6,14.81,14.81,0,0,1,2.39-.45,16,16,0,0,1,4.83.08,8.23,8.23,0,0,1,1.21.3,3.2,3.2,0,0,1,2.27,2.92c.06.59,0,1.2,0,1.84h-4c0-.26-.07-.52-.12-.77a1.13,1.13,0,0,0-1-1A7.17,7.17,0,0,0,6,58.54c-.78.17-1,.41-1,1.22a.07.07,0,0,0,0,.05c0,1,.26,1.37,1.24,1.47.68.08,1.37.09,2.05.16,1,.1,2,.22,2.94.34h.11a3.41,3.41,0,0,1,3,3.26,10.53,10.53,0,0,1-.09,3.12,3.08,3.08,0,0,1-1.49,2.19,5.26,5.26,0,0,1-2.2.73,26.5,26.5,0,0,1-6.54,0A3.56,3.56,0,0,1,.67,67.61C.62,67.07.67,66.52.67,65.93Z" fill="#cecece"/><path d="M123.53,55.16,118,62.94l6,8.13c-.23,0-.37,0-.51,0-1.36,0-2.73,0-4.1,0a.88.88,0,0,1-.8-.41c-1.27-1.77-2.57-3.53-3.83-5.31a1.07,1.07,0,0,0-1.12-.57,3.51,3.51,0,0,1-.58,0c0,1.07,0,2.11,0,3.15s0,2,0,3.09h-4.21c-.12-.4-.16-15.12,0-15.89h4.22V61a2.2,2.2,0,0,0,1.21.07c.14,0,.28-.23.39-.38,1.14-1.65,2.29-3.31,3.41-5a1.15,1.15,0,0,1,1.1-.59C120.57,55.18,122,55.16,123.53,55.16Z" fill="#cecece"/><path d="M37.32,55.18H48.71a16.59,16.59,0,0,1,.06,3.48c-.57,0-1.15,0-1.73,0H41.61c0,1,0,1.88,0,2.88h6.7v3.07H41.64v3H49v3.48H37.32Z" fill="#cecece"/><path d="M31.25,71.08H27c0-.67,0-1.35,0-2V58.86H22.77V55.2H35.43v3.64l-4.18,0Z" fill="#cecece"/><path d="M20.84,71.09H16.73c-.14-.42-.17-15.15,0-15.9h4.12C20.94,55.6,21,70.35,20.84,71.09Z" fill="#cecece"/><path d="M32.23,36.37l-.87-.14A6.83,6.83,0,0,1,31,33.7a.45.45,0,0,1,0-.11,4.24,4.24,0,0,1,0-1,3.67,3.67,0,0,1,.49-.8.87.87,0,0,1-.19.8c-.05,0-.14.12-.14.17.09.61-.18,1.24.11,1.83.22.43.45.84.67,1.26C32.09,36,32.14,36.17,32.23,36.37Z" fill="#cecece"/><path d="M19.27,39.55c-.56,1.14-.5,1.36.58,2a2.12,2.12,0,0,1-1.22-.32.57.57,0,0,1-.24-.83A2.51,2.51,0,0,1,19.27,39.55Z" fill="#cecece"/><path d="M24.45,40.93c-.09-.45,0-.71.36-.87s.66-.38,1-.57l.3-.15a.57.57,0,0,1-.07.17C25.53,40,25,40.42,24.45,40.93Z" fill="#cecece"/><path d="M24.87,24.68,25,25.85l-2.31-1.48C23.28,24,23.67,24.17,24.87,24.68Z" fill="#cecece"/><path d="M22,24.43a1,1,0,0,1,.39.08c.79.48,1.57,1,2.4,1.5-.34,0-.34,0-1-.33-.31-.18-.63-.36-.93-.55L22,24.58Z" fill="#cecece"/></g></g></svg>