<svg xmlns="http://www.w3.org/2000/svg" viewBox="0 0 79.11 79.11"><title>mapPin</title><g id="a8cf9e2b-50e5-476d-9bbc-5da176317b63" data-name="Layer 2"><g id="b15a067b-b53a-44dc-8d13-1d9124dd7891" data-name="Layer 8"><circle cx="39.55" cy="39.55" r="39.55" fill="#6d707c" opacity="0.46"/><circle cx="39.55" cy="39.55" r="29.07" fill="#3d3d42"/><path d="M26,40.72v.47c0,.75.26,1.14.82,1.14s.79-.4.79-1.29a2,2,0,0,0-1-1.94,2.43,2.43,0,0,1-1.28-2.24c0-1,.31-2,1.55-2s1.5.79,1.5,1.8v.37h-.85v-.34c0-.66-.12-1.09-.67-1.09s-.69.48-.69,1.1.16,1,.88,1.57a2.73,2.73,0,0,1,1.46,2.63c0,1.12-.32,2.14-1.67,2.14s-1.64-.85-1.64-1.89v-.46Z" fill="#fff"/><path d="M31.86,35.79H30.57V35H34v.79H32.71V43h-.85Z" fill="#fff"/><path d="M39,39.11H37.18v3.08h2l-.1.77H36.33V35h2.73v.79H37.18v2.54H39Z" fill="#fff"/><path d="M41.73,43V41.32h.85V43Z" fill="#fff"/><path d="M48.74,35h1.39c1.23,0,1.69.66,1.69,1.73v.36c0,1.12-.33,1.46-.74,1.61.44.14.91.52.91,1.59v.6c0,1.38-.48,2.07-1.84,2.07H48.74Zm1.35,3.37c.71,0,.92-.29.92-1.21V36.8c0-.73-.26-1.08-.94-1.08h-.5v2.65Zm-.52,3.88h.51c.85,0,1.06-.41,1.06-1.38v-.55c0-.87-.29-1.24-1.07-1.24h-.5Z" fill="#fff"/></g></g></svg>